<svg xmlns="http://www.w3.org/2000/svg" viewBox="0 0 192 192" role="img" aria-label="Schumacher Turismo">
  <rect width="192" height="192" rx="28" fill="#0f766e"/>
  <path d="M33 112h126c0 24-19 43-43 43H76c-24 0-43-19-43-43z" fill="#ffffff" opacity="0.96"/>
  <path d="M30 103c0-27 22-49 49-49h34c27 0 49 22 49 49v9H30v-9z" fill="#dff8f5"/>
  <circle cx="62" cy="126" r="12" fill="#0b5f59"/>
  <circle cx="130" cy="126" r="12" fill="#0b5f59"/>
  <rect x="46" y="66" width="100" height="26" rx="8" fill="#ffffff"/>
  <rect x="52" y="72" width="24" height="14" rx="3" fill="#9ad8d2"/>
  <rect x="82" y="72" width="24" height="14" rx="3" fill="#9ad8d2"/>
  <rect x="112" y="72" width="24" height="14" rx="3" fill="#9ad8d2"/>
</svg>
